<svg id="visual" viewBox="0 0 900 600" width="900" height="600" xmlns="http://www.w3.org/2000/svg" xmlns:xlink="http://www.w3.org/1999/xlink" version="1.1"><rect x="0" y="0" width="900" height="600" fill="#28185d"></rect><path d="M0 412L21.5 404.7C43 397.3 86 382.7 128.8 386.7C171.7 390.7 214.3 413.3 257.2 415.2C300 417 343 398 385.8 385.7C428.7 373.3 471.3 367.7 514.2 377.7C557 387.7 600 413.3 642.8 414.2C685.7 415 728.3 391 771.2 381C814 371 857 375 878.5 377L900 379L900 601L878.5 601C857 601 814 601 771.2 601C728.3 601 685.7 601 642.8 601C600 601 557 601 514.2 601C471.3 601 428.7 601 385.8 601C343 601 300 601 257.2 601C214.3 601 171.7 601 128.8 601C86 601 43 601 21.5 601L0 601Z" fill="#dd3ca4"></path><path d="M0 443L21.5 441.3C43 439.7 86 436.3 128.8 439.5C171.7 442.7 214.3 452.3 257.2 457.5C300 462.7 343 463.3 385.8 458C428.7 452.7 471.3 441.3 514.2 429.5C557 417.7 600 405.3 642.8 407.8C685.7 410.3 728.3 427.7 771.2 439.8C814 452 857 459 878.5 462.5L900 466L900 601L878.5 601C857 601 814 601 771.2 601C728.3 601 685.7 601 642.8 601C600 601 557 601 514.2 601C471.3 601 428.7 601 385.8 601C343 601 300 601 257.2 601C214.3 601 171.7 601 128.8 601C86 601 43 601 21.5 601L0 601Z" fill="#d93494"></path><path d="M0 494L21.5 489.7C43 485.3 86 476.7 128.8 477C171.7 477.3 214.3 486.7 257.2 489.5C300 492.3 343 488.7 385.8 486.3C428.7 484 471.3 483 514.2 483.3C557 483.7 600 485.3 642.8 481C685.7 476.7 728.3 466.3 771.2 467.8C814 469.3 857 482.7 878.5 489.3L900 496L900 601L878.5 601C857 601 814 601 771.2 601C728.3 601 685.7 601 642.8 601C600 601 557 601 514.2 601C471.3 601 428.7 601 385.8 601C343 601 300 601 257.2 601C214.3 601 171.7 601 128.8 601C86 601 43 601 21.5 601L0 601Z" fill="#d32d85"></path><path d="M0 521L21.5 523.3C43 525.7 86 530.3 128.8 529C171.7 527.7 214.3 520.3 257.2 514C300 507.7 343 502.3 385.8 501.2C428.7 500 471.3 503 514.2 504.5C557 506 600 506 642.8 503.7C685.7 501.3 728.3 496.7 771.2 502.2C814 507.7 857 523.3 878.5 531.2L900 539L900 601L878.5 601C857 601 814 601 771.2 601C728.3 601 685.7 601 642.8 601C600 601 557 601 514.2 601C471.3 601 428.7 601 385.8 601C343 601 300 601 257.2 601C214.3 601 171.7 601 128.8 601C86 601 43 601 21.5 601L0 601Z" fill="#cd2776"></path><path d="M0 571L21.5 565.2C43 559.3 86 547.7 128.8 540.7C171.7 533.7 214.3 531.3 257.2 534.5C300 537.7 343 546.3 385.8 552.2C428.7 558 471.3 561 514.2 557.2C557 553.3 600 542.7 642.8 541.2C685.7 539.7 728.3 547.3 771.2 549.5C814 551.7 857 548.3 878.5 546.7L900 545L900 601L878.5 601C857 601 814 601 771.2 601C728.3 601 685.7 601 642.8 601C600 601 557 601 514.2 601C471.3 601 428.7 601 385.8 601C343 601 300 601 257.2 601C214.3 601 171.7 601 128.8 601C86 601 43 601 21.5 601L0 601Z" fill="#c62368"></path></svg>