<svg id="visual" viewBox="0 0 900 600" width="900" height="600" xmlns="http://www.w3.org/2000/svg" xmlns:xlink="http://www.w3.org/1999/xlink" version="1.1"><g><g transform="translate(349 127)"><path d="M0 -94.6L90 -29.2L55.6 76.5L-55.6 76.5L-90 -29.2Z" fill="#dd3ca4"></path></g><g transform="translate(406 407)"><path d="M0 -61L58 -18.9L35.9 49.4L-35.9 49.4L-58 -18.9Z" fill="#dd3ca4"></path></g><g transform="translate(684 468)"><path d="M0 -45L42.8 -13.9L26.5 36.4L-26.5 36.4L-42.8 -13.9Z" fill="#dd3ca4"></path></g><g transform="translate(246 510)"><path d="M0 -70L66.6 -21.6L41.1 56.6L-41.1 56.6L-66.6 -21.6Z" fill="#dd3ca4"></path></g><g transform="translate(746 61)"><path d="M0 -62L59 -19.2L36.4 50.2L-36.4 50.2L-59 -19.2Z" fill="#dd3ca4"></path></g><g transform="translate(201 255)"><path d="M0 -41L39 -12.7L24.1 33.2L-24.1 33.2L-39 -12.7Z" fill="#dd3ca4"></path></g><g transform="translate(770 256)"><path d="M0 -59L56.1 -18.2L34.7 47.7L-34.7 47.7L-56.1 -18.2Z" fill="#dd3ca4"></path></g><g transform="translate(563 284)"><path d="M0 -43L40.9 -13.3L25.3 34.8L-25.3 34.8L-40.9 -13.3Z" fill="#dd3ca4"></path></g><g transform="translate(185 29)"><path d="M0 -44L41.8 -13.6L25.9 35.6L-25.9 35.6L-41.8 -13.6Z" fill="#dd3ca4"></path></g><g transform="translate(896 465)"><path d="M0 -89L84.6 -27.5L52.3 72L-52.3 72L-84.6 -27.5Z" fill="#dd3ca4"></path></g><g transform="translate(5 199)"><path d="M0 -56L53.3 -17.3L32.9 45.3L-32.9 45.3L-53.3 -17.3Z" fill="#dd3ca4"></path></g><g transform="translate(58 537)"><path d="M0 -55L52.3 -17L32.3 44.5L-32.3 44.5L-52.3 -17Z" fill="#dd3ca4"></path></g><g transform="translate(487 583)"><path d="M0 -84L79.9 -26L49.4 68L-49.4 68L-79.9 -26Z" fill="#dd3ca4"></path></g><g transform="translate(533 68)"><path d="M0 -87L82.7 -26.9L51.1 70.4L-51.1 70.4L-82.7 -26.9Z" fill="#dd3ca4"></path></g></g></svg>